<svg xmlns="http://www.w3.org/2000/svg" viewBox="0 0 32 32" fill="none">
  <rect width="32" height="32" rx="8" fill="#0891B2"/>
  <path d="M11.5 7.5C9.5 7.5 7.5 9.3 7.5 11.8C7.5 14.5 8.8 16.8 9.5 19C10.2 21.2 10 23 11.2 24C12.2 25 13.2 24.5 13.8 22.8C14.3 21.2 14.8 19.5 16 19.5C17.2 19.5 17.7 21.2 18.2 22.8C18.8 24.5 19.8 25 20.8 24C22 23 21.8 21.2 22.5 19C23.2 16.8 24.5 14.5 24.5 11.8C24.5 9.3 22.5 7.5 20.5 7.5C19 7.5 17.8 8.5 17 10C16.5 8.8 15.5 7.5 16 7.5C14.8 7.5 14 8.5 13.3 9.8C12.5 8.5 12.5 7.5 11.5 7.5Z" fill="white"/>
</svg>
